<svg xmlns="http://www.w3.org/2000/svg" width="512" height="512" viewBox="0 0 512 512"><rect width="512" height="512" x="0" y="0" fill="#3a3a3a" rx="60" ry="60"/><linearGradient id="grad1" x1="0%" x2="100%" y1="0%" y2="100%"><stop offset="0%" style="stop-color:#444;stop-opacity:1"/><stop offset="100%" style="stop-color:#222;stop-opacity:1"/></linearGradient><rect width="472" height="472" x="20" y="20" fill="url(#grad1)" rx="50" ry="50"/><g transform="translate(80, 120)"><rect width="240" height="180" x="0" y="0" fill="#555" stroke="#777" stroke-width="5" rx="15" ry="15"/><circle cx="120" cy="90" r="60" fill="#333" stroke="#777" stroke-width="3"/><circle cx="120" cy="90" r="45" fill="#222" stroke="#666" stroke-width="2"/><circle cx="120" cy="90" r="30" fill="#111" stroke="#555" stroke-width="2"/><circle cx="105" cy="75" r="8" fill="#fff" opacity=".7"/><circle cx="135" cy="105" r="4" fill="#fff" opacity=".5"/><circle cx="30" cy="30" r="10" fill="#f44"/><circle cx="30" cy="30" r="6" fill="#f66"/></g><g><rect width="320" height="60" x="100" y="330" fill="#222" stroke="#444" stroke-width="2" rx="5" ry="5"/><rect width="40" height="40" x="120" y="340" fill="#444" stroke="#666" stroke-width="1" rx="2" ry="2"/><rect width="40" height="40" x="170" y="340" fill="#444" stroke="#666" stroke-width="1" rx="2" ry="2"/><rect width="40" height="40" x="220" y="340" fill="#444" stroke="#666" stroke-width="1" rx="2" ry="2"/><rect width="40" height="40" x="270" y="340" fill="#444" stroke="#666" stroke-width="1" rx="2" ry="2"/><rect width="40" height="40" x="320" y="340" fill="#444" stroke="#666" stroke-width="1" rx="2" ry="2"/><rect width="20" height="5" x="130" y="335" fill="#333"/><rect width="20" height="5" x="180" y="335" fill="#333"/><rect width="20" height="5" x="230" y="335" fill="#333"/><rect width="20" height="5" x="280" y="335" fill="#333"/><rect width="20" height="5" x="330" y="335" fill="#333"/></g><g transform="translate(340, 140)"><circle cx="0" cy="0" r="70" fill="none" stroke="#4e89ff" stroke-width="8" opacity=".7"/><path fill="#4e89ff" d="M-40,-25 L-25,-40 L40,25 L25,40 Z" opacity=".8"/><path fill="#4e89ff" d="M-40,25 L-25,40 L40,-25 L25,-40 Z" opacity=".8"/></g></svg>